<?xml version="1.0" encoding="UTF-8"?><svg id="Layer_1" xmlns="http://www.w3.org/2000/svg" viewBox="0 0 607.14 136.05"><defs><style>.cls-1{letter-spacing:.42em;}.cls-2,.cls-3{fill:#fff;}.cls-4{fill:#ff7900;}.cls-5{letter-spacing:.52em;}.cls-3{font-family:ColdiacFree-Regular, 'Coldiac Free';font-size:25px;}</style></defs><path class="cls-4" d="m105.47,3.52v2.97c-.08.35-.16.71-.23,1.06-.25,1.24-.62,2.44-1.5,3.41-.74.82-1.07,1.85-1.54,2.82-.43.86-1.01,1.65-1.48,2.48-.3.53-.57,1.09-.78,1.66-.39,1.04-.81,2.05-1.43,3-.59.9-1.23,1.78-1.15,3.05.07,1.15-.29,2.31-1.14,3.23-.68.73-1,1.63-1.09,2.63-.1,1.16-.61,2.2-1.09,3.25-.27.61-.35,1.32-.51,1.99-.1.4-.16.81-.29,1.2-.41,1.34-1.39,2.34-2.14,3.48-.56.85-.98,1.81-1.67,2.55-.66.7-1.51,1.29-2.39,1.69-1.14.51-2.37.81-3.58,1.15-1.05.29-2.13.5-3.2.76-.14.04-.26.11-.5.22.33.19.57.35.82.47,1.22.58,2.46,1.12,3.67,1.73.6.3,1.15.7,1.72,1.06.45.29.68.68.61,1.25-.12.87.35,1.4.95,2,.78.77,1.88.86,2.67,1.56.73.64,1.54,1.18,1.81,2.2.23.9.06,1.31-.77,1.67-.39.18-.54.42-.61.82-.16.95.16,1.62.89,2.25.81.7,1.56,1.49,2.22,2.32.53.67.45,1.48-.06,2.14-.19.26-.55.45-.87.54-.47.13-.87.26-.9.84-.04.71-.12,1.42-.12,2.12,0,.19.18.39.27.58.42.84.91,1.66,1.23,2.55.38,1.07-.29,2.13-1.4,2.34-1.36.26-1.98,2.17-1.52,3.14.84,1.82,2.03,3.31,3.73,4.34.81.5,1.67.89,2.5,1.37.88.51,1.73,1.07,2.29,1.98.48.79.54,1.62.29,2.43-.47,1.49-2.23,2.99-4.16,2.02-.57-.29-1.06-.7-1.32-1.33-.57-1.42-1.12-2.86-1.78-4.25-.57-1.2-1.54-2.1-2.47-3.04-1.11-1.13-2.27-.82-3.47-.35-.21.07-.37.34-.48.55-.22.46-.38.95-.6,1.41-.36.76-.59.89-1.41.75-.26-.04-.55-.11-.77-.25-1-.64-1.93-.32-2.85.16-.22.12-.43.36-.54.59-.74,1.53-1.96,1.54-3.22.79-1.02-.61-1.84-1.45-2.25-2.66-.31-.9-.84-1.62-1.92-1.68-.09,0-.2-.04-.27,0-1.03.57-1.65-.21-2.1-.82-.84-1.12-1.55-2.33-1.87-3.75-.17-.73-.56-1.42-.84-2.13-.16-.39-.32-.78-.46-1.17-.79-2.2-1.56-4.41-2.38-6.6-.35-.94-.71-1.89-1.19-2.77-.87-1.61-1.76-3.19-2.75-4.73-.76-1.2-1.62-2.35-2.55-3.42-.16-.15-.39-.35-.68-.55-.48-.35-1.51-1.1-1.9-.84-.21.15-.15.57.03,1.5.26,1.38.5,2.05.6,2.74.27,2.06.95,4.08.53,6.21-.19.95-.55,1.78-1.15,2.57-.57.71-1.07,1.49-1.51,2.3,0,.01-.02.04-.03.05-.19.35-.32.57-.46.69-.03.03-.07.05-.1.07-.01,0-.03-.01-.04-.03-.02.01-.04.02-.05.03h0s0,0,0,0c-.01,0-.04-.01-.05-.03-.01.01-.03.02-.04.03-.03-.01-.07-.04-.1-.07-.13-.12-.26-.35-.46-.69,0-.01-.02-.04-.03-.05-.44-.81-.93-1.59-1.51-2.3-.6-.79-.96-1.62-1.15-2.57-.42-2.13.26-4.15.53-6.21.1-.69.33-1.36.59-2.74.18-.93.24-1.34.03-1.5-.39-.26-1.42.48-1.9.84-.29.21-.51.4-.68.55-.93,1.07-1.78,2.23-2.55,3.42-.98,1.54-1.88,3.12-2.75,4.73-.48.88-.84,1.83-1.19,2.77-.82,2.19-1.59,4.4-2.38,6.6-.14.39-.29.78-.46,1.17-.28.71-.67,1.4-.84,2.13-.32,1.42-1.04,2.63-1.87,3.75-.46.62-1.07,1.4-2.1.82-.07-.04-.18,0-.27,0-1.09.06-1.62.79-1.92,1.68-.4,1.2-1.23,2.05-2.25,2.66-1.26.75-2.48.74-3.22-.79-.12-.23-.32-.47-.54-.59-.92-.48-1.85-.8-2.85-.16-.22.14-.51.21-.77.25-.82.14-1.05.01-1.41-.75-.22-.46-.38-.95-.6-1.41-.11-.21-.27-.48-.48-.55-1.2-.47-2.37-.78-3.47.35-.93.94-1.9,1.84-2.47,3.04-.65,1.39-1.2,2.82-1.78,4.25-.26.63-.75,1.04-1.32,1.33-1.93.97-3.69-.53-4.16-2.02-.25-.82-.2-1.64.29-2.43.57-.91,1.41-1.47,2.29-1.98.82-.48,1.69-.87,2.5-1.37,1.7-1.04,2.89-2.52,3.73-4.34.46-.97-.16-2.87-1.52-3.14-1.11-.21-1.78-1.27-1.4-2.34.32-.89.81-1.7,1.23-2.55.1-.19.27-.39.27-.58,0-.71-.09-1.42-.12-2.12-.04-.59-.43-.71-.9-.84-.32-.09-.68-.28-.87-.54-.51-.67-.59-1.48-.06-2.14.66-.83,1.41-1.62,2.22-2.32.73-.62,1.05-1.3.89-2.25-.07-.4-.22-.64-.61-.82-.83-.37-1-.78-.77-1.67.26-1.01,1.08-1.56,1.81-2.2.79-.7,1.9-.79,2.67-1.56.6-.59,1.07-1.13.95-2-.07-.57.16-.95.61-1.25.57-.37,1.12-.76,1.72-1.06,1.2-.61,2.45-1.15,3.67-1.73.25-.12.48-.28.82-.47-.24-.11-.36-.18-.5-.22-1.06-.26-2.14-.47-3.19-.76-1.21-.34-2.45-.63-3.58-1.15-.88-.4-1.73-.99-2.39-1.69-.69-.73-1.12-1.7-1.67-2.55-.75-1.14-1.73-2.14-2.14-3.48-.12-.4-.19-.81-.29-1.2-.16-.67-.23-1.38-.51-1.99-.48-1.05-.98-2.09-1.09-3.25-.1-1-.41-1.89-1.09-2.63-.85-.92-1.2-2.09-1.14-3.23.08-1.26-.55-2.15-1.15-3.05-.62-.95-1.04-1.95-1.43-3-.21-.57-.48-1.13-.78-1.66-.47-.84-1.05-1.62-1.48-2.48-.47-.97-.8-2.01-1.54-2.82-.88-.97-1.25-2.17-1.5-3.41-.07-.36-.15-.71-.23-1.06v-2.97c.07-.24.13-.48.22-.72.22-.55.39-1.15.71-1.64C1.46.35,2.38.08,3.27.04c1.38-.06,2.79-.07,4.16.12,3.52.47,6.79,1.75,9.83,3.55,1.7,1.01,3.38,2.04,5,3.17,2.12,1.48,4.24,3,6.26,4.62,1.49,1.2,2.85,2.56,4.22,3.91,1.57,1.55,3.18,3.08,4.61,4.75,1.61,1.87,3.13,3.82,4.52,5.85,1.54,2.25,2.94,4.59,4.28,6.96.05.1.1.17.14.25.37.73.6,1.31.65,1.45.35.94.77,1.32,1.31,2.55.7,1.58.5,2.06,1.31,3.45.37.62.84,1.27,1.25,1.19.12-.02.4-.15.5-.38.06-.13.04-.24.14-.43.06-.11.14-.19.19-.24-.03-.04-.26-.3-.21-.68.04-.37.31-.57.35-.59-.15-.57-.35-1.29-.65-2.13-.17-.48-.57-1.59-1.29-3.08-.51-1.03-1.04-1.93-2.1-3.73-.94-1.59-1.95-3.2-2.2-3.61-.07-.11-.12-.18-.15-.23l-.12-.18c-.86-1.33-1.67-2.58-1.59-4.26.02-.33.07-.65.15-.98.02-.07.1-.12.18-.1.08.02.12.1.1.18-.08.3-.13.61-.15.92-.08,1.59.71,2.8,1.54,4.08l.13.21c.98,1.54,1.77,2.86,2.34,3.83,1.26,2.17,2.23,3.83,3.23,6.13.49,1.13.85,2.09,1.08,2.72.03.04.09.09.16.13.16.09.37.09.53,0,.08-.04.13-.09.16-.13.23-.63.59-1.59,1.08-2.72,1.01-2.29,1.97-3.96,3.23-6.13.57-.97,1.35-2.28,2.34-3.83l.13-.21c.84-1.29,1.62-2.5,1.54-4.08-.02-.31-.07-.62-.15-.92-.02-.07.02-.15.1-.18.08-.02.16.03.18.1.08.32.13.65.15.98.09,1.68-.73,2.93-1.59,4.26l-.12.18s-.07.12-.15.23c-.26.41-1.26,2.03-2.2,3.61-1.07,1.8-1.59,2.7-2.1,3.73-.72,1.48-1.12,2.59-1.29,3.08-.29.84-.5,1.56-.65,2.13.04.03.31.23.35.59.05.38-.18.65-.21.68.05.05.13.13.19.24.1.18.08.29.14.43.1.24.37.36.5.38.4.08.88-.57,1.25-1.19.82-1.4.62-1.87,1.31-3.45.54-1.23.96-1.61,1.31-2.55.05-.14.28-.71.65-1.45.04-.08.09-.15.14-.25,1.34-2.36,2.75-4.71,4.28-6.96,1.39-2.03,2.91-3.98,4.52-5.85,1.43-1.67,3.04-3.2,4.61-4.75,1.37-1.34,2.72-2.71,4.22-3.91,2.02-1.62,4.14-3.14,6.26-4.62,1.62-1.12,3.31-2.16,5-3.17,3.05-1.8,6.32-3.08,9.83-3.55,1.37-.18,2.78-.18,4.16-.12.89.04,1.81.31,2.34,1.12.32.49.48,1.09.71,1.64.09.24.15.48.22.72Z"/><path class="cls-2" d="m148.36,63.54c-9.47-.03-16.9-2.42-22.3-7.18-5.4-4.76-8.1-11.28-8.1-19.58s2.67-14.83,8.02-19.61c5.35-4.78,12.68-7.17,22-7.17,7.11,0,13.22,1.32,18.32,3.97l.15,12.66h-.59c-2.5-9.03-8.22-13.54-17.15-13.54-5.79,0-10.36,2.1-13.73,6.29-3.36,4.19-5.04,9.92-5.04,17.18s1.61,13.02,4.82,17.29c3.21,4.27,7.57,6.48,13.06,6.62,5.69,0,10.03-1.42,13.03-4.27,3.04-2.94,5.15-8,6.33-15.16h.59l.74,12.66c-3.97,6.58-10.7,9.85-20.16,9.82Z"/><path class="cls-2" d="m179.27,61.81c1.28,0,2.37-.45,3.28-1.36.91-.91,1.39-2,1.43-3.27V16.4c-.05-1.28-.53-2.37-1.43-3.27-.91-.91-2-1.36-3.28-1.36h-.96v-.74h22.37l-.07.74h-.88c-1.28,0-2.38.46-3.31,1.36-.93.91-1.4,2-1.4,3.27v42.98h9.64c3.58,0,6.59-1.03,9.02-3.09,2.43-2.06,4.23-4.98,5.41-8.76h.74l-3.39,15.01h-38.12v-.74h.96Z"/><path class="cls-2" d="m281.63,11.76h-1.25c-1.03,0-1.91.33-2.65.99-.74.66-1.13,1.49-1.18,2.47v28.7c0,6.04-1.89,10.82-5.67,14.35-3.78,3.53-8.95,5.3-15.53,5.3-7.75,0-13.69-1.73-17.81-5.19-4.12-3.46-6.18-8.25-6.18-14.39V15.44c-.05-1.47-.71-2.55-1.99-3.24-.59-.29-1.23-.44-1.91-.44h-1.18v-.74h21.19v.74h-1.18c-1.08,0-1.99.33-2.72.99-.74.66-1.13,1.51-1.18,2.54v28.11c0,5.2,1.28,9.32,3.83,12.36,2.55,3.04,6.06,4.56,10.52,4.56s8-1.44,10.6-4.3c2.6-2.87,3.93-6.76,3.97-11.66V15.3c-.1-1.42-.76-2.45-1.99-3.09-.59-.29-1.23-.44-1.91-.44h-1.18v-.74h15.38v.74Z"/><path class="cls-2" d="m312.62,62.54h-23.26v-.74h.96c1.77,0,3.12-.76,4.05-2.28.39-.69.61-1.45.66-2.28V16.33c-.05-1.28-.53-2.36-1.43-3.24-.91-.88-2-1.32-3.28-1.32h-.96v-.74h21.34c5.69,0,10.22,1.03,13.58,3.09,3.36,2.06,5.07,5.23,5.11,9.49-.05,2.16-.51,4.05-1.4,5.67-1.62,3.04-4.17,4.78-7.66,5.22,3.78.34,6.89,1.76,9.35,4.23,2.45,2.48,3.68,5.63,3.68,9.46,0,4.61-1.85,8.16-5.56,10.63-3.71,2.48-8.77,3.72-15.2,3.72Zm5.01-37.97c-.05-6.92-3.19-10.38-9.42-10.38h-2.13v44.97h3.53c3.39,0,6.08-.98,8.1-2.94,2.01-1.96,3.02-4.95,3.02-8.98s-1.13-7.02-3.39-8.98c-2.26-1.96-5.18-2.94-8.76-2.94v-.66c2.55,0,4.68-.82,6.4-2.47,1.72-1.64,2.6-4.18,2.65-7.62Z"/><path class="cls-2" d="m369.36,14.04v43.2c.05,1.28.53,2.36,1.44,3.24.91.88,2,1.32,3.27,1.32h.88l.07.74h-22.37v-.74h.96c1.23,0,2.29-.44,3.2-1.32.91-.88,1.41-1.94,1.51-3.16V14.04h-9.93c-2.26.05-4.05.76-5.37,2.13-1.32,1.37-1.99,3.17-1.99,5.37v.88h-.74v-12.81c2.01.83,4.91,1.28,8.69,1.32h29.66c1.52,0,3.18-.15,4.97-.44,1.79-.29,3.03-.59,3.72-.88v12.81h-.74v-.88c0-3.04-1.15-5.2-3.46-6.48-1.08-.64-2.38-.98-3.9-1.03h-9.86Z"/><path class="cls-2" d="m439.49,61.81h.66v.74h-23.48v-.74h.66c1.08,0,1.88-.33,2.39-.99.52-.66.77-1.29.77-1.88s-.12-1.18-.37-1.77l-3.61-9.05h-17.22l-3.83,9.05c-.25.64-.37,1.24-.37,1.8s.27,1.18.81,1.84c.54.66,1.35.99,2.43.99h.59v.74h-15.75v-.74h.66c1.13,0,2.26-.34,3.39-1.03,1.13-.69,2.06-1.72,2.8-3.09l17-38.49c2.31-4.86,3.53-8.07,3.68-9.64h.66l21.86,47.98c.74,1.42,1.67,2.49,2.8,3.2,1.13.71,2.28,1.07,3.46,1.07Zm-38.93-16.78h14.72l-7.14-18.1-7.58,18.1Z"/><path class="cls-2" d="m445.31,61.81c1.28,0,2.37-.45,3.28-1.36.91-.91,1.39-2,1.43-3.27V16.33c-.05-1.28-.53-2.36-1.43-3.24-.91-.88-2-1.32-3.28-1.32h-.96v-.74h22.37l-.07.74h-.88c-1.28,0-2.38.44-3.31,1.32-.93.88-1.4,1.96-1.4,3.24v40.84c0,1.28.47,2.37,1.4,3.27.93.91,2.03,1.36,3.31,1.36h.88l.07.74h-22.37v-.74h.96Z"/><path class="cls-2" d="m477.1,61.81c1.28,0,2.37-.45,3.28-1.36.91-.91,1.39-2,1.43-3.27V16.4c-.05-1.28-.53-2.37-1.43-3.27-.91-.91-2-1.36-3.28-1.36h-.96v-.74h22.37l-.07.74h-.88c-1.28,0-2.38.46-3.31,1.36-.93.91-1.4,2-1.4,3.27v42.98h9.64c3.58,0,6.59-1.03,9.02-3.09,2.43-2.06,4.23-4.98,5.41-8.76h.74l-3.39,15.01h-38.12v-.74h.96Z"/><text class="cls-3" transform="translate(126.73 90.17)"><tspan class="cls-5" x="0" y="0">BOLD</tspan><tspan class="cls-1" x="121.73" y="0">L</tspan><tspan class="cls-5" x="146.65" y="0">Y BESPOKE</tspan></text></svg>