<?xml version="1.0" encoding="UTF-8" standalone="no"?>
<!-- Created with Inkscape (http://www.inkscape.org/) -->

<svg
   version="1.1"
   id="svg2"
   width="718.66669"
   height="114.66667"
   viewBox="0 0 718.66669 114.66667"
   sodipodi:docname="hafele.eps"
   xmlns:inkscape="http://www.inkscape.org/namespaces/inkscape"
   xmlns:sodipodi="http://sodipodi.sourceforge.net/DTD/sodipodi-0.dtd"
   xmlns="http://www.w3.org/2000/svg"
   xmlns:svg="http://www.w3.org/2000/svg">
  <defs
     id="defs6" />
  <sodipodi:namedview
     id="namedview4"
     pagecolor="#ffffff"
     bordercolor="#000000"
     borderopacity="0.25"
     inkscape:showpageshadow="2"
     inkscape:pageopacity="0.0"
     inkscape:pagecheckerboard="0"
     inkscape:deskcolor="#d1d1d1" />
  <g
     id="g8"
     inkscape:groupmode="layer"
     inkscape:label="ink_ext_XXXXXX"
     transform="matrix(1.3333333,0,0,-1.3333333,0,114.66667)">
    <g
       id="g10"
       transform="scale(0.1)">
      <path
         d="m 1069.05,661.176 h 198.69 V 859.871 H 1069.05 V 661.176"
         style="fill:#d41636;fill-opacity:1;fill-rule:nonzero;stroke:none"
         id="path12" />
      <path
         d="M 2358.68,519.227 V 689.656 H 2925 V 859.871 H 2159.99 V 9.35156 h 198.69 V 349.102 h 481.17 v 170.125 h -481.17"
         style="fill:#918f90;fill-opacity:1;fill-rule:nonzero;stroke:none"
         id="path14" />
      <path
         d="m 1794.15,661.176 h 198.7 v 198.695 h -198.7 V 661.176"
         style="fill:#d41636;fill-opacity:1;fill-rule:nonzero;stroke:none"
         id="path16" />
      <path
         d="M 1606.44,859.871 H 1454.13 L 967.332,9.35156 H 1201.22 L 1302.77,188.395 h 452.55 L 1858.23,9.35156 h 230.14 z m -75.5,-220.398 158.16,-282.578 h -322.52 z"
         style="fill:#d41636;fill-opacity:1;fill-rule:nonzero;stroke:none"
         id="path18" />
      <path
         d="m 3846.61,9.35156 h 709.34 V 187.469 H 4045.29 V 859.871 H 3846.6 l 0.01,-850.51944"
         style="fill:#918f90;fill-opacity:1;fill-rule:nonzero;stroke:none"
         id="path20" />
      <path
         d="M 688.074,859.871 V 532.613 H 216.691 V 859.871 H 8.36719 V 9.35156 H 216.691 V 342.652 H 688.074 V 9.35156 H 896.395 V 859.871 H 688.074"
         style="fill:#918f90;fill-opacity:1;fill-rule:nonzero;stroke:none"
         id="path22" />
      <path
         d="m 3676.92,349.102 v 170.125 h -467.33 l -0.01,170.429 552.65,0.094 V 859.871 H 3011.05 L 3010.87,9.35156 h 751.19 V 187.469 h -552.48 v 161.633 h 467.34"
         style="fill:#918f90;fill-opacity:1;fill-rule:nonzero;stroke:none"
         id="path24" />
      <path
         d="M 4636.82,859.871 V 9.35156 h 751.2 V 187.469 h -552.5 v 161.633 h 467.35 V 519.227 H 4835.52 V 689.75 h 552.5 v 170.121 h -751.2"
         style="fill:#918f90;fill-opacity:1;fill-rule:nonzero;stroke:none"
         id="path26" />
    </g>
  </g>
</svg>
