<?xml version="1.0" encoding="UTF-8"?>
<svg id="Layer_1" data-name="Layer 1" xmlns="http://www.w3.org/2000/svg" version="1.1" viewBox="0 0 243.7 136.1">
  <defs>
    <style>
      .cls-1 {
        fill: #f37920;
      }

      .cls-1, .cls-2, .cls-3 {
        stroke-width: 0px;
      }

      .cls-2 {
        fill: #ef5323;
      }

      .cls-3 {
        fill: #fff;
      }
    </style>
  </defs>
  <g>
    <path class="cls-3" d="M67.7,101.8h1.7v5.9h3.7v1.6h-5.5v-7.4h.1Z"/>
    <path class="cls-3" d="M76.3,108.5c-.6-.6-.9-1.4-.9-2.5v-4.2h1.7v4.2c0,.6.1,1,.4,1.3.3.3.7.5,1.2.5s.9-.2,1.2-.5.4-.8.4-1.3v-4.2h1.7v4.2c0,1.1-.3,1.9-.9,2.5s-1.4.9-2.5.9-1.9-.3-2.5-.9h.2Z"/>
    <path class="cls-3" d="M89.2,105.5l2.6,3.8h-2.1l-.9-1.3-.7-1.2-.7,1.2-.9,1.3h-2.1l2.5-3.7-2.4-3.7h2.1l.8,1.3.7,1.2.7-1.2.8-1.3h2.1l-2.4,3.6h-.1Z"/>
    <path class="cls-3" d="M94.8,108.5c-.6-.6-.9-1.4-.9-2.5v-4.2h1.7v4.2c0,.6.1,1,.4,1.3s.7.5,1.2.5.9-.2,1.2-.5c.3-.3.4-.8.4-1.3v-4.2h1.7v4.2c0,1.1-.3,1.9-.9,2.5s-1.4.9-2.5.9-1.9-.3-2.5-.9h.2Z"/>
    <path class="cls-3" d="M106.4,106.8h-1v2.5h-1.7v-7.4h3.6c.5,0,1,0,1.4.3s.7.5.9.9c.2.4.3.8.3,1.3s-.1,1.1-.4,1.5-.7.7-1.2.9l2.1,2.6h-2.1l-1.9-2.5h0ZM108,103.6c-.2-.2-.5-.3-.9-.3h-1.7v2.1h1.7c.4,0,.7,0,.9-.3.2-.2.3-.4.3-.8s-.1-.6-.3-.8h0Z"/>
    <path class="cls-3" d="M119.3,101.8l-3,4.5v2.9h-1.7v-2.9l-2.9-4.5h2l1.8,2.9,1.8-2.9h2.1,0Z"/>
    <path class="cls-3" d="M127.9,106.8h-1v2.5h-1.7v-7.4h3.6c.5,0,1,0,1.4.3.4.2.7.5.9.9.2.4.3.8.3,1.3s-.1,1.1-.4,1.5-.7.7-1.2.9l2.1,2.6h-2.1l-1.9-2.5h0ZM129.4,103.6c-.2-.2-.5-.3-.9-.3h-1.7v2.1h1.7c.4,0,.7,0,.9-.3.2-.2.3-.4.3-.8s-.1-.6-.3-.8h0Z"/>
    <path class="cls-3" d="M136,107.8h4.1v1.5h-5.8v-7.4h5.7v1.5h-4v1.5h3.8v1.4h-3.8v1.6h0Z"/>
    <path class="cls-3" d="M148,102.3c.6.3,1,.7,1.3,1.3.3.6.5,1.2.5,2s-.2,1.4-.5,2-.8,1-1.3,1.3c-.6.3-1.2.5-2,.5h-3v-7.4h3c.8,0,1.4.2,2,.5v-.2ZM147.5,107.2c.4-.4.6-.9.6-1.6s0-.8-.3-1.2c-.2-.3-.4-.6-.7-.8-.3-.2-.7-.3-1.1-.3h-1.3v4.4h1.3c.6,0,1.1-.2,1.5-.6h0Z"/>
    <path class="cls-3" d="M154.2,107.8h4.1v1.5h-5.8v-7.4h5.7v1.5h-4v1.5h3.8v1.4h-3.8v1.6h0Z"/>
    <path class="cls-3" d="M166.5,103.3h-3.8v1.8h3.5v1.5h-3.5v2.7h-1.7v-7.4h5.5v1.5h0Z"/>
    <path class="cls-3" d="M169.3,101.8h1.7v7.4h-1.7v-7.4Z"/>
    <path class="cls-3" d="M179.1,101.8h1.7v7.4h-1.6l-3.4-4.6v4.6h-1.7v-7.4h1.6l3.4,4.6v-4.6Z"/>
    <path class="cls-3" d="M185.6,107.8h4.1v1.5h-5.8v-7.4h5.7v1.5h-4v1.5h3.8v1.4h-3.8v1.6h0Z"/>
    <path class="cls-3" d="M197.5,102.3c.6.3,1,.7,1.3,1.3.3.6.5,1.2.5,2s-.2,1.4-.5,2-.8,1-1.3,1.3c-.6.3-1.2.5-2,.5h-3v-7.4h3c.8,0,1.4.2,2,.5v-.2ZM197,107.2c.4-.4.6-.9.6-1.6s0-.8-.3-1.2c-.2-.3-.4-.6-.7-.8-.3-.2-.7-.3-1.1-.3h-1.3v4.4h1.3c.6,0,1.1-.2,1.5-.6h0Z"/>
  </g>
  <path class="cls-2" d="M27.2,11.4l-10.5,16.8c0,.1-.1.2-.2.3-1.6,2.8-.7,6.4,1.9,8.4l6,4.6-4.4-1.1c-2.2-.5-4.5,0-6.2,1.4s-.9,1-1.3,1.5l-6.3,10.1c7.6,3,16.9,2.1,25-4.5,3.3-2.7,5.6-6.4,6.6-10.5,2.9-12-2.2-22.1-10.4-27.2l-.2.2Z"/>
  <path class="cls-1" d="M33.5,13.9l-13.4,13.4s-.2.2-.3.3c-2.1,2.3-2,5.8,0,8.3l4.6,5.6-3.9-2c-1.9-1-4.2-1-6.1,0s-1.1.7-1.5,1.1l-8.1,8.1c6.5,4.4,15.4,5.6,24.3,1.1,3.6-1.8,6.6-4.8,8.4-8.4,5.3-10.6,2.7-21.1-3.9-27.6h-.1Z"/>
  <g>
    <rect class="cls-3" x="216.7" y="40.9" width="10.1" height="9.8"/>
    <path class="cls-3" d="M49.1,86.2c-12.5,0-22.6-10.1-22.6-22.6s10.1-22.6,22.6-22.6,14.4,3.7,18.6,9.8l-8.4,5.8c-2.3-3.4-6.1-5.4-10.2-5.4-6.8,0-12.4,5.6-12.4,12.4s5.6,12.4,12.4,12.4,8-2.1,10.3-5.5l8.5,5.7c-4.2,6.3-11.2,10-18.8,10h0Z"/>
    <path class="cls-3" d="M116.7,53.4v33.3h-8.7l-.5-3.5v-1c-1.3,1.4-2.8,2.5-4.5,3.2s-3.6,1.1-5.7,1.1c-3.9,0-7-1.3-9.3-3.9s-3.5-6.1-3.5-10.7v-18.7h10.1v18.1c0,2.1.5,3.7,1.5,4.8,1,1.2,2.4,1.7,4.1,1.7s3.5-.7,4.7-2,1.8-3.1,1.8-5.2v-17.4h10.1v.2Z"/>
    <path class="cls-3" d="M147.6,55.6c2.3,1.4,4.1,3.3,5.4,5.8s1.9,5.4,1.9,8.6-.6,6.1-1.9,8.6-3.1,4.5-5.4,5.8c-2.3,1.4-4.9,2.1-7.9,2.1-4.3,0-7.8-1.5-10.5-4.4l-.6,3.8-8.7-12.8v-32.2h10.1v16.2c2.7-2.4,5.9-3.7,9.8-3.7s5.6.7,7.9,2.1h0ZM142.8,75.8c1.4-1.5,1.4-10.1,0-11.6s-3.2-2.2-5.5-2.2-4,.7-5.4,2.2-2.1,3.4-2.1,5.8.7,4.3,2.1,5.8,3.2,2.2,5.4,2.2,4-.7,5.5-2.2Z"/>
    <path class="cls-3" d="M178,84c-2.5,1.2-5.3,1.9-8.4,1.9s-6.2-1-8.2-2.9-3-5.1-3-9.4v-12l-5.4-8.1h5.4v-7.8l10-1.1v8.9h7.9v8.1h-7.9v12c0,1.3.3,2.2,1,2.9.6.6,1.5.9,2.6.9s1.1,0,2.3-.5l3.7,7.2h0Z"/>
    <path class="cls-3" d="M230,40.9h10.1v45.7h-5.4l-4.7-3.5v-42.2Z"/>
    <path class="cls-3" d="M216.6,53.4h10.1v33.3h-5.4l-4.7-3.5s0-29.8,0-29.8Z"/>
    <path class="cls-3" d="M213.3,53.4v33.3h-5.9l-3.4-3.5v-1c-2.7,3-6.2,4.4-10.6,4.4s-5.6-.7-7.9-2.1-4.1-3.3-5.4-5.8-1.9-5.4-1.9-8.6.6-6.1,1.9-8.6,3.1-4.4,5.4-5.8c2.3-1.4,4.9-2.1,7.9-2.1s4.1.4,5.9,1.1c1.8.7,3.3,1.8,4.6,3.2v-4.5h9.4ZM201.2,75.8c1.4-1.5,2.1-3.4,2.1-5.8s-.7-4.3-2.1-5.8-3.2-2.2-5.5-2.2-4,.7-5.4,2.2-2.1,3.4-2.1,5.8.7,4.3,2.1,5.8,3.2,2.2,5.4,2.2,4-.7,5.5-2.2Z"/>
    <path class="cls-3" d="M71.2,40.9h10.1v45.7h-5.4l-4.7-3.5v-42.2Z"/>
  </g>
</svg>