<?xml version="1.0" encoding="UTF-8"?>
<svg id="Layer_1" data-name="Layer 1" xmlns="http://www.w3.org/2000/svg" version="1.1" viewBox="0 0 364.7 200">
  <defs>
    <style>
      .cls-1 {
        fill: #f37920;
      }

      .cls-1, .cls-2, .cls-3 {
        stroke-width: 0px;
      }

      .cls-2 {
        fill: #231f20;
      }

      .cls-3 {
        fill: #ef5323;
      }
    </style>
  </defs>
  <g>
    <path class="cls-2" d="M97.5,157h2.7v8.9h5.7v2.4h-8.3v-11.3h0Z"/>
    <path class="cls-2" d="M110.6,167.2c-.9-.9-1.4-2.2-1.4-3.8v-6.4h2.7v6.4c0,.9.2,1.5.7,2,.4.5,1,.7,1.8.7s1.4-.2,1.8-.7c.4-.5.7-1.2.7-2v-6.4h2.7v6.4c0,1.6-.4,2.9-1.3,3.8s-2.2,1.4-3.8,1.4-2.9-.5-3.8-1.4h0Z"/>
    <path class="cls-2" d="M130.2,162.5l3.9,5.8h-3.2l-1.3-2-1.1-1.8-1.1,1.8-1.3,2h-3.2l3.8-5.7-3.6-5.7h3.1l1.2,1.9,1.1,1.8,1.1-1.8,1.2-1.9h3.1l-3.7,5.5h0Z"/>
    <path class="cls-2" d="M138.8,167.2c-.9-.9-1.4-2.2-1.4-3.8v-6.4h2.7v6.4c0,.9.2,1.5.7,2,.4.5,1,.7,1.8.7s1.4-.2,1.8-.7c.4-.5.7-1.2.7-2v-6.4h2.7v6.4c0,1.6-.4,2.9-1.3,3.8s-2.2,1.4-3.8,1.4-2.9-.5-3.8-1.4h0Z"/>
    <path class="cls-2" d="M156.4,164.6h-1.5v3.7h-2.7v-11.3h5.5c.8,0,1.5.2,2.2.5s1.1.8,1.4,1.3c.3.6.5,1.3.5,2s-.2,1.6-.7,2.2-1.1,1.1-1.9,1.3l3.2,4h-3.2l-2.9-3.7h0ZM158.8,159.7c-.3-.3-.7-.4-1.3-.4h-2.6v3.2h2.6c.6,0,1-.1,1.3-.4.3-.3.5-.7.5-1.2s-.2-.9-.5-1.2h0Z"/>
    <path class="cls-2" d="M175.9,157l-4.6,6.9v4.4h-2.6v-4.4l-4.4-6.9h3.1l2.7,4.4,2.7-4.4h3.2-.1Z"/>
    <path class="cls-2" d="M189.1,164.6h-1.5v3.7h-2.7v-11.3h5.5c.8,0,1.5.2,2.1.5s1.1.8,1.4,1.3c.3.6.5,1.3.5,2s-.2,1.6-.7,2.2-1.1,1.1-1.9,1.3l3.2,4h-3.2l-2.9-3.7h.2ZM191.4,159.7c-.3-.3-.7-.4-1.3-.4h-2.6v3.2h2.6c.6,0,1-.1,1.3-.4.3-.3.5-.7.5-1.2s-.2-.9-.5-1.2h0Z"/>
    <path class="cls-2" d="M201.5,166.1h6.2v2.2h-8.8v-11.3h8.6v2.2h-6.1v2.3h5.7v2.1h-5.7v2.4h0Z"/>
    <path class="cls-2" d="M219.6,157.7c.9.5,1.6,1.1,2,2,.5.9.7,1.9.7,3s-.2,2.1-.7,3-1.2,1.5-2,2c-.9.5-1.9.7-3.1.7h-4.6v-11.3h4.6c1.2,0,2.2.2,3.1.7h0ZM218.9,165.1c.6-.6.9-1.4.9-2.4s-.1-1.3-.4-1.8-.6-.9-1.1-1.2-1-.4-1.7-.4h-2v6.7h2c.9,0,1.7-.3,2.3-.9h0Z"/>
    <path class="cls-2" d="M229,166.1h6.2v2.2h-8.8v-11.3h8.6v2.2h-6.1v2.3h5.7v2.1h-5.7v2.4h0Z"/>
    <path class="cls-2" d="M247.9,159.3h-5.7v2.7h5.4v2.2h-5.4v4.1h-2.7v-11.3h8.4v2.3h0Z"/>
    <path class="cls-2" d="M252,157h2.7v11.3h-2.7v-11.3Z"/>
    <path class="cls-2" d="M266.9,157h2.6v11.3h-2.4l-5.1-7v7h-2.6v-11.3h2.4l5.1,7v-7Z"/>
    <path class="cls-2" d="M276.8,166.1h6.2v2.2h-8.8v-11.3h8.6v2.2h-6.1v2.3h5.7v2.1h-5.7v2.4h0Z"/>
    <path class="cls-2" d="M295,157.7c.9.5,1.6,1.1,2,2,.5.9.7,1.9.7,3s-.2,2.1-.7,3-1.2,1.5-2,2c-.9.5-1.9.7-3.1.7h-4.6v-11.3h4.6c1.2,0,2.2.2,3.1.7h0ZM294.2,165.1c.6-.6.9-1.4.9-2.4s-.1-1.3-.4-1.8-.6-.9-1.1-1.2-1-.4-1.7-.4h-2v6.7h2c.9,0,1.7-.3,2.3-.9h0Z"/>
  </g>
  <path class="cls-3" d="M35.8,19.5l-16,25.5c0,.2-.2.3-.3.5-2.4,4.3-1.1,9.8,2.8,12.8l9.1,7.1-6.7-1.6c-3.3-.8-6.8,0-9.4,2.2s-1.4,1.4-2,2.3l-9.7,15.4c11.6,4.6,25.8,3.2,38-6.9,4.9-4.1,8.5-9.7,10-15.9,4.5-18.3-3.3-33.6-15.9-41.4h0Z"/>
  <path class="cls-1" d="M45.5,23.2l-20.4,20.4c0,0-.3.3-.4.4-3.1,3.5-3.1,8.9,0,12.6l6.9,8.5-5.9-3c-2.9-1.5-6.4-1.5-9.2,0-.8.5-1.6,1-2.3,1.7l-12.3,12.3c9.8,6.8,23.4,8.6,37,1.7,5.5-2.8,10-7.2,12.7-12.7,8.1-16.1,4.1-32.1-6-42.1v.2Z"/>
  <g>
    <rect class="cls-2" x="324.1" y="64.3" width="15.3" height="14.9"/>
    <path class="cls-2" d="M69.3,133.1c-19,0-34.4-15.4-34.4-34.4s15.4-34.4,34.4-34.4,21.9,5.6,28.3,14.9l-12.8,8.8c-3.5-5.1-9.3-8.2-15.5-8.2-10.4,0-18.9,8.4-18.9,18.8s8.5,18.8,18.9,18.8,12.1-3.1,15.7-8.3l12.9,8.7c-6.4,9.5-17.1,15.2-28.5,15.2h0Z"/>
    <path class="cls-2" d="M172,83.3v50.7h-13.3l-.8-5.3-.2-1.5c-1.8,2.1-4.1,3.8-6.7,4.9-2.6,1.1-5.5,1.7-8.6,1.7-5.9,0-10.6-2-14.2-5.9-3.5-3.9-5.3-9.3-5.3-16.2v-28.5h15.3v27.6c0,3.1.8,5.6,2.3,7.3,1.5,1.8,3.6,2.6,6.3,2.6s5.3-1,7.1-3.1,2.7-4.7,2.7-8v-26.5h15.3v.2Z"/>
    <path class="cls-2" d="M219.1,86.7c3.5,2.1,6.2,5.1,8.2,8.9s2.9,8.2,2.9,13-1,9.2-2.9,13c-2,3.8-4.7,6.8-8.2,8.9s-7.5,3.2-12,3.2c-6.6,0-11.9-2.2-16-6.7l-1,5.8-13.3-19.4v-48.9h15.3v24.7c4-3.7,9-5.6,14.9-5.6s8.5,1.1,12,3.2h.1ZM211.8,117.4c2.1-2.2,2.1-15.4,0-17.7-2.1-2.2-4.9-3.4-8.3-3.4s-6.1,1.1-8.3,3.4c-2.1,2.3-3.2,5.2-3.2,8.8s1.1,6.5,3.2,8.8,4.9,3.4,8.3,3.4,6.2-1.1,8.3-3.4h0Z"/>
    <path class="cls-2" d="M265.2,129.8c-3.8,1.9-8,2.8-12.8,2.8s-9.4-1.5-12.5-4.4c-3.1-3-4.6-7.7-4.6-14.3v-18.3l-8.2-12.3h8.2v-11.9l15.2-1.7v13.6h12v12.3h-12v18.3c0,2,.5,3.4,1.5,4.3s2.3,1.4,4,1.4,1.7-.2,3.6-.8l5.6,11h0Z"/>
    <path class="cls-2" d="M344.4,64.4h15.3v69.5h-8.2l-7.1-5.3v-64.2h0Z"/>
    <path class="cls-2" d="M324.1,83.3h15.3v50.6h-8.2l-7.1-5.3v-45.3h0Z"/>
    <path class="cls-2" d="M319,83.3v50.6h-9l-5.2-5.3v-1.6c-4.2,4.5-9.5,6.7-16.1,6.7s-8.5-1.1-12-3.2c-3.5-2.1-6.2-5.1-8.2-8.9s-2.9-8.2-2.9-13,1-9.2,2.9-13c2-3.8,4.7-6.8,8.2-8.9s7.5-3.2,12-3.2,6.2.6,9,1.7c2.7,1.1,5.1,2.8,7,4.9v-6.9h14.3ZM300.7,117.4c2.1-2.2,3.2-5.2,3.2-8.8s-1.1-6.6-3.2-8.8c-2.1-2.2-4.9-3.4-8.3-3.4s-6.1,1.1-8.3,3.4c-2.1,2.3-3.2,5.2-3.2,8.8s1.1,6.5,3.2,8.8,4.9,3.4,8.3,3.4,6.2-1.1,8.3-3.4Z"/>
    <path class="cls-2" d="M102.8,64.4h15.3v69.5h-8.2l-7.1-5.3s0-64.2,0-64.2Z"/>
  </g>
</svg>