<?xml version="1.0" encoding="UTF-8"?>
<svg xmlns="http://www.w3.org/2000/svg" xmlns:xlink="http://www.w3.org/1999/xlink" width="256px" height="256px" viewBox="0 0 256 256" version="1.1">
<g id="surface1">
<path style=" stroke:none;fill-rule:nonzero;fill:rgb(50.980392%,54.117647%,53.72549%);fill-opacity:1;" d="M 52.84375 184.195312 L 255.867188 184.195312 L 255.867188 256 L 52.84375 256 Z M 52.84375 184.195312 "/>
<path style=" stroke:none;fill-rule:nonzero;fill:rgb(80%,33.333333%,0%);fill-opacity:1;" d="M 51.246094 9.546875 L 51.246094 17.585938 C 51.207031 18.539062 51.167969 19.492188 51.132812 20.46875 C 51.011719 23.828125 50.835938 27.082031 50.410156 29.714844 C 50.050781 31.917969 49.890625 34.722656 49.660156 37.355469 C 49.457031 39.683594 49.171875 41.816406 48.945312 44.09375 C 48.796875 45.523438 48.671875 47.050781 48.570312 48.605469 C 48.382812 51.433594 48.179688 54.167969 47.875 56.746094 C 47.589844 59.175781 47.28125 61.582031 47.320312 65.015625 C 47.351562 68.121094 47.183594 71.304688 46.769531 73.785156 C 46.4375 75.789062 46.285156 78.21875 46.238281 80.925781 C 46.1875 84.082031 45.941406 86.886719 45.710938 89.742188 C 45.578125 91.394531 45.542969 93.324219 45.464844 95.15625 C 45.417969 96.230469 45.386719 97.335938 45.324219 98.410156 C 45.125 102.042969 44.652344 104.773438 44.289062 107.855469 C 44.023438 110.160156 43.8125 112.765625 43.480469 114.773438 C 43.160156 116.675781 42.746094 118.277344 42.320312 119.355469 C 41.769531 120.757812 41.171875 121.535156 40.585938 122.464844 C 40.074219 123.238281 39.550781 123.816406 39.035156 124.515625 C 38.96875 124.617188 38.910156 124.816406 38.796875 125.117188 C 38.957031 125.644531 39.066406 126.070312 39.1875 126.398438 C 39.78125 127.976562 40.378906 129.453125 40.964844 131.105469 C 41.257812 131.933594 41.523438 133.011719 41.796875 133.988281 C 42.015625 134.789062 42.128906 135.84375 42.09375 137.371094 C 42.035156 139.726562 42.257812 141.179688 42.554688 142.78125 C 42.929688 144.886719 43.46875 145.113281 43.851562 147.015625 C 44.207031 148.746094 44.601562 150.222656 44.730469 152.980469 C 44.839844 155.410156 44.757812 156.535156 44.355469 157.511719 C 44.164062 157.988281 44.09375 158.640625 44.058594 159.71875 C 43.976562 162.296875 44.132812 164.128906 44.488281 165.804688 C 44.878906 167.710938 45.246094 169.839844 45.5625 172.09375 C 45.816406 173.898438 45.78125 176.101562 45.535156 177.90625 C 45.441406 178.609375 45.265625 179.136719 45.109375 179.359375 C 44.882812 179.710938 44.6875 180.0625 44.671875 181.640625 C 44.652344 183.542969 44.613281 185.5 44.609375 187.402344 C 44.609375 187.929688 44.695312 188.453125 44.738281 188.980469 C 44.941406 191.261719 45.179688 193.492188 45.332031 195.894531 C 45.515625 198.800781 45.191406 201.683594 44.652344 202.257812 C 43.996094 202.984375 43.691406 208.148438 43.914062 210.777344 C 44.320312 215.714844 44.898438 219.746094 45.722656 222.554688 C 46.113281 223.90625 46.53125 224.957031 46.929688 226.261719 C 47.355469 227.664062 47.769531 229.167969 48.042969 231.648438 C 48.277344 233.800781 48.300781 236.03125 48.179688 238.238281 C 47.953125 242.269531 47.101562 246.355469 46.167969 243.722656 C 45.886719 242.921875 45.652344 241.820312 45.527344 240.117188 C 45.25 236.257812 44.980469 232.375 44.664062 228.589844 C 44.386719 225.335938 43.914062 222.902344 43.46875 220.347656 C 42.929688 217.292969 42.367188 218.117188 41.785156 219.394531 C 41.6875 219.597656 41.605469 220.324219 41.550781 220.898438 C 41.445312 222.152344 41.367188 223.480469 41.261719 224.734375 C 41.085938 226.8125 40.972656 227.136719 40.578125 226.761719 C 40.445312 226.636719 40.308594 226.460938 40.199219 226.085938 C 39.71875 224.355469 39.265625 225.207031 38.816406 226.511719 C 38.710938 226.835938 38.613281 227.488281 38.554688 228.113281 C 38.195312 232.25 37.605469 232.273438 36.996094 230.246094 C 36.5 228.589844 36.101562 226.3125 35.910156 223.027344 C 35.761719 220.597656 35.5 218.621094 34.976562 218.46875 C 34.933594 218.46875 34.882812 218.34375 34.847656 218.46875 C 34.351562 220.023438 34.050781 217.917969 33.828125 216.238281 C 33.421875 213.207031 33.074219 209.925781 32.917969 206.066406 C 32.839844 204.0625 32.648438 202.210938 32.511719 200.28125 C 32.433594 199.226562 32.359375 198.175781 32.292969 197.125 C 31.90625 191.160156 31.535156 185.171875 31.136719 179.234375 C 30.972656 176.679688 30.792969 174.125 30.558594 171.71875 C 30.140625 167.359375 29.707031 163.050781 29.230469 158.890625 C 28.859375 155.632812 28.449219 152.503906 27.996094 149.597656 C 27.914062 149.171875 27.808594 148.667969 27.667969 148.09375 C 27.433594 147.140625 26.933594 145.113281 26.746094 145.8125 C 26.644531 146.238281 26.671875 147.339844 26.761719 149.871094 C 26.890625 153.628906 27.003906 155.433594 27.046875 157.3125 C 27.175781 162.898438 27.507812 168.363281 27.300781 174.148438 C 27.207031 176.730469 27.035156 178.984375 26.742188 181.113281 C 26.464844 183.042969 26.226562 185.148438 26.011719 187.351562 C 26.011719 187.402344 26.003906 187.453125 26 187.503906 C 25.90625 188.429688 25.84375 189.054688 25.78125 189.382812 C 25.765625 189.457031 25.75 189.53125 25.734375 189.558594 C 25.726562 189.558594 25.722656 189.507812 25.714844 189.480469 C 25.703125 189.53125 25.695312 189.53125 25.6875 189.558594 C 25.675781 189.558594 25.667969 189.507812 25.660156 189.480469 C 25.652344 189.53125 25.644531 189.53125 25.636719 189.558594 C 25.625 189.507812 25.605469 189.457031 25.59375 189.382812 C 25.53125 189.054688 25.460938 188.453125 25.375 187.503906 C 25.375 187.453125 25.363281 187.402344 25.359375 187.351562 C 25.144531 185.171875 24.90625 183.042969 24.628906 181.113281 C 24.339844 178.984375 24.164062 176.730469 24.070312 174.148438 C 23.871094 168.363281 24.195312 162.898438 24.324219 157.3125 C 24.371094 155.433594 24.488281 153.628906 24.613281 149.871094 C 24.703125 147.339844 24.730469 146.214844 24.625 145.8125 C 24.4375 145.085938 23.941406 147.117188 23.703125 148.09375 C 23.566406 148.644531 23.453125 149.171875 23.378906 149.597656 C 22.925781 152.503906 22.511719 155.632812 22.140625 158.890625 C 21.664062 163.050781 21.230469 167.359375 20.8125 171.71875 C 20.578125 174.097656 20.40625 176.679688 20.234375 179.234375 C 19.839844 185.171875 19.464844 191.160156 19.082031 197.125 C 19.011719 198.175781 18.9375 199.226562 18.859375 200.28125 C 18.726562 202.210938 18.539062 204.0625 18.453125 206.066406 C 18.296875 209.925781 17.953125 213.207031 17.546875 216.238281 C 17.328125 217.917969 17.027344 220.023438 16.523438 218.46875 C 16.488281 218.371094 16.4375 218.46875 16.394531 218.46875 C 15.867188 218.621094 15.613281 220.597656 15.464844 223.027344 C 15.265625 226.285156 14.871094 228.589844 14.375 230.246094 C 13.769531 232.273438 13.175781 232.25 12.820312 228.113281 C 12.761719 227.488281 12.664062 226.835938 12.554688 226.511719 C 12.113281 225.207031 11.660156 224.332031 11.171875 226.085938 C 11.066406 226.460938 10.925781 226.636719 10.800781 226.761719 C 10.402344 227.136719 10.289062 226.8125 10.117188 224.734375 C 10.007812 223.480469 9.933594 222.152344 9.824219 220.898438 C 9.773438 220.324219 9.695312 219.597656 9.59375 219.394531 C 9.011719 218.117188 8.445312 217.292969 7.910156 220.347656 C 7.460938 222.902344 6.992188 225.359375 6.714844 228.589844 C 6.398438 232.347656 6.132812 236.234375 5.851562 240.117188 C 5.722656 241.820312 5.488281 242.921875 5.210938 243.722656 C 4.277344 246.355469 3.425781 242.296875 3.195312 238.238281 C 3.078125 236.03125 3.101562 233.800781 3.335938 231.648438 C 3.609375 229.167969 4.019531 227.664062 4.445312 226.261719 C 4.84375 224.957031 5.265625 223.90625 5.652344 222.554688 C 6.480469 219.746094 7.054688 215.714844 7.460938 210.777344 C 7.6875 208.148438 7.386719 202.984375 6.722656 202.257812 C 6.1875 201.683594 5.859375 198.800781 6.042969 195.894531 C 6.195312 193.492188 6.433594 191.261719 6.640625 188.980469 C 6.683594 188.453125 6.769531 187.929688 6.769531 187.402344 C 6.769531 185.5 6.722656 183.542969 6.707031 181.640625 C 6.6875 180.035156 6.496094 179.710938 6.265625 179.359375 C 6.109375 179.109375 5.9375 178.609375 5.84375 177.90625 C 5.597656 176.101562 5.554688 173.898438 5.816406 172.09375 C 6.136719 169.839844 6.5 167.683594 6.890625 165.804688 C 7.242188 164.101562 7.398438 162.273438 7.320312 159.71875 C 7.285156 158.640625 7.210938 157.988281 7.023438 157.511719 C 6.621094 156.511719 6.539062 155.410156 6.652344 152.980469 C 6.78125 150.222656 7.175781 148.746094 7.53125 147.015625 C 7.914062 145.113281 8.445312 144.886719 8.824219 142.78125 C 9.113281 141.179688 9.335938 139.726562 9.285156 137.371094 C 9.246094 135.84375 9.363281 134.789062 9.578125 133.988281 C 9.851562 132.984375 10.121094 131.910156 10.410156 131.105469 C 10.992188 129.453125 11.597656 127.976562 12.1875 126.398438 C 12.308594 126.070312 12.425781 125.644531 12.582031 125.117188 C 12.464844 124.816406 12.40625 124.617188 12.339844 124.515625 C 11.824219 123.816406 11.300781 123.238281 10.792969 122.464844 C 10.207031 121.535156 9.605469 120.757812 9.054688 119.355469 C 8.628906 118.277344 8.214844 116.675781 7.894531 114.773438 C 7.5625 112.765625 7.355469 110.160156 7.085938 107.855469 C 6.722656 104.773438 6.25 102.042969 6.050781 98.410156 C 5.988281 97.335938 5.957031 96.230469 5.914062 95.15625 C 5.835938 93.351562 5.800781 91.394531 5.667969 89.742188 C 5.433594 86.886719 5.1875 84.082031 5.140625 80.925781 C 5.09375 78.21875 4.9375 75.789062 4.613281 73.785156 C 4.199219 71.304688 4.03125 68.121094 4.0625 65.015625 C 4.101562 61.582031 3.792969 59.175781 3.507812 56.746094 C 3.203125 54.167969 3 51.433594 2.8125 48.605469 C 2.710938 47.050781 2.578125 45.546875 2.4375 44.09375 C 2.207031 41.816406 1.925781 39.683594 1.71875 37.355469 C 1.492188 34.722656 1.332031 31.917969 0.972656 29.714844 C 0.546875 27.082031 0.367188 23.828125 0.246094 20.46875 C 0.210938 19.492188 0.171875 18.539062 0.136719 17.585938 L 0.136719 9.546875 C 0.171875 8.894531 0.199219 8.242188 0.242188 7.589844 C 0.351562 6.089844 0.429688 4.484375 0.582031 3.15625 C 0.839844 0.925781 1.285156 0.226562 1.714844 0.101562 C 2.386719 -0.0507812 3.066406 -0.0742188 3.730469 0.425781 C 5.433594 1.703125 7.019531 5.160156 8.496094 10.046875 C 9.320312 12.777344 10.132812 15.582031 10.921875 18.640625 C 11.953125 22.671875 12.976562 26.78125 13.957031 31.167969 C 14.675781 34.425781 15.339844 38.132812 16 41.765625 C 16.761719 45.972656 17.542969 50.109375 18.238281 54.667969 C 19.019531 59.726562 19.757812 65.039062 20.425781 70.527344 C 21.171875 76.613281 21.851562 82.976562 22.503906 89.390625 C 22.53125 89.644531 22.550781 89.84375 22.570312 90.070312 C 22.753906 92.074219 22.863281 93.625 22.890625 94.003906 C 23.058594 96.558594 23.261719 97.585938 23.523438 100.917969 C 23.863281 105.199219 23.765625 106.503906 24.160156 110.285156 C 24.339844 111.992188 24.566406 113.746094 24.765625 113.519531 C 24.828125 113.46875 24.957031 113.117188 25.007812 112.492188 C 25.03125 112.140625 25.023438 111.839844 25.074219 111.339844 C 25.101562 111.039062 25.140625 110.8125 25.167969 110.6875 C 25.152344 110.585938 25.039062 109.859375 25.0625 108.832031 C 25.085938 107.832031 25.210938 107.304688 25.234375 107.230469 C 25.164062 105.703125 25.0625 103.722656 24.921875 101.441406 C 24.839844 100.140625 24.644531 97.109375 24.292969 93.101562 C 24.046875 90.320312 23.792969 87.863281 23.277344 82.976562 C 22.820312 78.667969 22.335938 74.285156 22.207031 73.183594 C 22.171875 72.882812 22.152344 72.679688 22.136719 72.554688 L 22.078125 72.078125 C 21.664062 68.472656 21.269531 65.089844 21.308594 60.53125 C 21.316406 59.628906 21.34375 58.75 21.386719 57.875 C 21.394531 57.675781 21.433594 57.523438 21.476562 57.597656 C 21.515625 57.648438 21.539062 57.875 21.523438 58.074219 C 21.484375 58.902344 21.460938 59.726562 21.453125 60.554688 C 21.414062 64.863281 21.792969 68.144531 22.199219 71.628906 L 22.261719 72.179688 C 22.742188 76.363281 23.121094 79.921875 23.394531 82.550781 C 24.007812 88.441406 24.472656 92.949219 24.960938 99.164062 C 25.199219 102.21875 25.375 104.824219 25.484375 106.527344 C 25.503906 106.628906 25.523438 106.78125 25.5625 106.878906 C 25.640625 107.105469 25.738281 107.105469 25.816406 106.878906 C 25.851562 106.78125 25.878906 106.628906 25.898438 106.527344 C 26.007812 104.824219 26.183594 102.21875 26.421875 99.164062 C 26.910156 92.949219 27.375 88.414062 27.988281 82.550781 C 28.261719 79.921875 28.640625 76.363281 29.117188 72.179688 L 29.183594 71.628906 C 29.589844 68.144531 29.96875 64.863281 29.929688 60.554688 C 29.921875 59.726562 29.898438 58.875 29.859375 58.074219 C 29.847656 57.875 29.867188 57.648438 29.90625 57.597656 C 29.945312 57.546875 29.988281 57.675781 29.996094 57.875 C 30.035156 58.75 30.058594 59.628906 30.074219 60.53125 C 30.117188 65.089844 29.71875 68.472656 29.300781 72.078125 L 29.246094 72.554688 C 29.246094 72.554688 29.207031 72.882812 29.171875 73.183594 C 29.046875 74.308594 28.558594 78.695312 28.101562 82.976562 C 27.589844 87.863281 27.328125 90.320312 27.082031 93.101562 C 26.734375 97.132812 26.535156 100.140625 26.457031 101.441406 C 26.3125 103.722656 26.214844 105.675781 26.144531 107.230469 C 26.164062 107.304688 26.289062 107.855469 26.3125 108.832031 C 26.339844 109.859375 26.222656 110.585938 26.210938 110.6875 C 26.238281 110.839844 26.273438 111.039062 26.304688 111.339844 C 26.351562 111.839844 26.34375 112.140625 26.371094 112.492188 C 26.421875 113.117188 26.554688 113.46875 26.613281 113.519531 C 26.808594 113.746094 27.039062 111.992188 27.21875 110.285156 C 27.609375 106.503906 27.515625 105.199219 27.851562 100.917969 C 28.117188 97.585938 28.316406 96.558594 28.488281 94.003906 C 28.515625 93.625 28.621094 92.074219 28.804688 90.070312 C 28.828125 89.84375 28.851562 89.644531 28.871094 89.390625 C 29.527344 82.976562 30.203125 76.613281 30.949219 70.527344 C 31.621094 65.015625 32.359375 59.726562 33.136719 54.667969 C 33.832031 50.132812 34.609375 45.972656 35.375 41.765625 C 36.039062 38.105469 36.695312 34.425781 37.421875 31.167969 C 38.402344 26.757812 39.425781 22.648438 40.457031 18.640625 C 41.242188 15.582031 42.058594 12.777344 42.882812 10.046875 C 44.359375 5.160156 45.941406 1.703125 47.648438 0.425781 C 48.308594 -0.0742188 48.996094 -0.0507812 49.660156 0.101562 C 50.089844 0.226562 50.539062 0.925781 50.796875 3.15625 C 50.949219 4.484375 51.03125 6.113281 51.136719 7.589844 C 51.183594 8.21875 51.210938 8.894531 51.246094 9.546875 Z M 51.246094 9.546875 "/>
<path style=" stroke:none;fill-rule:nonzero;fill:rgb(50.980392%,54.117647%,53.72549%);fill-opacity:1;" d="M 72.566406 154.78125 C 67.976562 154.707031 64.375 148.21875 61.757812 135.316406 C 59.140625 122.414062 57.832031 104.699219 57.832031 82.203125 C 57.832031 59.703125 59.132812 41.964844 61.722656 28.988281 C 64.3125 16.007812 67.867188 9.519531 72.386719 9.519531 C 75.832031 9.519531 78.796875 13.101562 81.265625 20.292969 L 81.339844 54.640625 L 81.050781 54.640625 C 79.839844 30.164062 77.070312 17.914062 72.742188 17.914062 C 69.933594 17.914062 67.71875 23.601562 66.089844 34.976562 C 64.460938 46.347656 63.648438 61.90625 63.648438 81.601562 C 63.648438 101.292969 64.425781 116.925781 65.984375 128.527344 C 67.539062 140.101562 69.652344 146.089844 72.316406 146.488281 C 75.074219 146.488281 77.179688 142.632812 78.632812 134.914062 C 80.105469 126.921875 81.128906 113.21875 81.695312 93.777344 L 81.984375 93.777344 L 82.339844 128.125 C 80.417969 145.964844 77.160156 154.832031 72.566406 154.78125 Z M 72.566406 154.78125 "/>
<path style=" stroke:none;fill-rule:nonzero;fill:rgb(50.980392%,54.117647%,53.72549%);fill-opacity:1;" d="M 87.546875 150.097656 C 88.164062 150.097656 88.691406 148.871094 89.136719 146.414062 C 89.574219 143.960938 89.804688 140.976562 89.828125 137.519531 L 89.828125 26.90625 C 89.804688 23.449219 89.574219 20.492188 89.136719 18.015625 C 88.695312 15.558594 88.164062 14.332031 87.546875 14.332031 L 87.082031 14.332031 L 87.082031 12.328125 L 97.925781 12.328125 L 97.890625 14.332031 L 97.460938 14.332031 C 96.84375 14.332031 96.304688 15.558594 95.851562 18.015625 C 95.402344 20.46875 95.175781 23.449219 95.175781 26.90625 L 95.175781 143.507812 L 99.847656 143.507812 C 101.585938 143.507812 103.039062 140.703125 104.21875 135.117188 C 105.394531 129.527344 106.265625 121.609375 106.839844 111.363281 L 107.199219 111.363281 L 105.554688 152.101562 L 87.082031 152.101562 L 87.082031 150.097656 Z M 87.546875 150.097656 "/>
<path style=" stroke:none;fill-rule:nonzero;fill:rgb(50.980392%,54.117647%,53.72549%);fill-opacity:1;" d="M 137.15625 14.332031 L 136.550781 14.332031 C 136.050781 14.332031 135.625 15.234375 135.269531 17.035156 C 134.910156 18.839844 134.722656 21.070312 134.695312 23.726562 L 134.695312 101.59375 C 134.695312 117.976562 133.777344 130.929688 131.949219 140.527344 C 130.117188 150.121094 127.605469 154.90625 124.417969 154.90625 C 120.660156 154.90625 117.785156 150.222656 115.785156 140.828125 C 113.789062 131.433594 112.789062 118.429688 112.789062 101.792969 L 112.789062 24.300781 C 112.765625 20.320312 112.441406 17.386719 111.824219 15.507812 C 111.539062 14.707031 111.230469 14.304688 110.898438 14.304688 L 110.328125 14.304688 L 110.328125 12.300781 L 120.597656 12.300781 L 120.597656 14.304688 L 120.023438 14.304688 C 119.5 14.304688 119.0625 15.207031 118.703125 17.011719 C 118.347656 18.816406 118.160156 21.09375 118.132812 23.902344 L 118.132812 100.164062 C 118.132812 114.269531 118.75 125.445312 119.984375 133.710938 C 121.21875 141.953125 122.921875 146.089844 125.085938 146.089844 C 127.253906 146.089844 128.960938 142.207031 130.222656 134.414062 C 131.488281 126.621094 132.125 116.074219 132.148438 102.769531 L 132.148438 23.902344 C 132.097656 20.042969 131.78125 17.238281 131.1875 15.507812 C 130.898438 14.707031 130.589844 14.304688 130.261719 14.304688 L 129.6875 14.304688 L 129.6875 12.300781 L 137.140625 12.300781 L 137.140625 14.304688 Z M 137.15625 14.332031 "/>
<path style=" stroke:none;fill-rule:nonzero;fill:rgb(50.980392%,54.117647%,53.72549%);fill-opacity:1;" d="M 152.171875 152.101562 L 140.902344 152.101562 L 140.902344 150.097656 L 141.367188 150.097656 C 142.222656 150.097656 142.875 148.042969 143.328125 143.910156 C 143.519531 142.054688 143.625 139.976562 143.652344 137.722656 L 143.652344 26.707031 C 143.628906 23.25 143.394531 20.320312 142.957031 17.914062 C 142.519531 15.507812 141.984375 14.332031 141.367188 14.332031 L 140.902344 14.332031 L 140.902344 12.328125 L 151.246094 12.328125 C 154.003906 12.328125 156.195312 15.132812 157.824219 20.71875 C 159.453125 26.304688 160.28125 34.898438 160.304688 46.476562 C 160.28125 52.335938 160.054688 57.449219 159.628906 61.859375 C 158.84375 70.101562 157.605469 74.835938 155.917969 76.039062 C 157.75 76.964844 159.261719 80.796875 160.445312 87.511719 C 161.636719 94.226562 162.234375 102.796875 162.234375 113.167969 C 162.234375 125.671875 161.332031 135.289062 159.539062 142.03125 C 157.742188 148.746094 155.285156 152.125 152.171875 152.125 Z M 154.597656 49.082031 C 154.574219 30.316406 153.054688 20.921875 150.03125 20.921875 L 149 20.921875 L 149 142.90625 L 150.714844 142.90625 C 152.355469 142.90625 153.664062 140.25 154.636719 134.914062 C 155.613281 129.578125 156.101562 121.460938 156.101562 110.5625 C 156.101562 99.664062 155.554688 91.523438 154.457031 86.210938 C 153.367188 80.898438 151.949219 78.21875 150.214844 78.21875 L 150.214844 76.414062 C 151.453125 76.414062 152.484375 74.183594 153.316406 69.726562 C 154.148438 65.265625 154.578125 58.375 154.601562 49.054688 Z M 154.597656 49.082031 "/>
<path style=" stroke:none;fill-rule:nonzero;fill:rgb(50.980392%,54.117647%,53.72549%);fill-opacity:1;" d="M 179.671875 20.519531 L 179.671875 137.722656 C 179.695312 141.179688 179.929688 144.109375 180.367188 146.515625 C 180.804688 148.921875 181.335938 150.097656 181.957031 150.097656 L 182.386719 150.097656 L 182.421875 152.101562 L 171.578125 152.101562 L 171.578125 150.097656 L 172.042969 150.097656 C 172.636719 150.097656 173.152344 148.894531 173.597656 146.515625 C 174.035156 144.109375 174.28125 141.253906 174.324219 137.921875 L 174.324219 20.519531 L 169.511719 20.519531 C 168.417969 20.644531 167.550781 22.574219 166.90625 26.304688 C 166.265625 30.039062 165.941406 34.898438 165.941406 40.886719 L 165.941406 43.292969 L 165.585938 43.292969 L 165.585938 8.542969 C 166.5625 10.796875 167.960938 12 169.796875 12.125 L 184.171875 12.125 C 184.910156 12.125 185.710938 11.726562 186.578125 10.921875 C 187.449219 10.121094 188.046875 9.320312 188.382812 8.519531 L 188.382812 43.269531 L 188.023438 43.269531 L 188.023438 40.863281 C 188.023438 32.621094 187.464844 26.757812 186.347656 23.300781 C 185.824219 21.570312 185.191406 20.644531 184.457031 20.492188 L 179.679688 20.492188 Z M 179.671875 20.519531 "/>
<path style=" stroke:none;fill-rule:nonzero;fill:rgb(50.980392%,54.117647%,53.72549%);fill-opacity:1;" d="M 213.664062 150.097656 L 213.988281 150.097656 L 213.988281 152.101562 L 202.609375 152.101562 L 202.609375 150.097656 L 202.933594 150.097656 C 203.457031 150.097656 203.839844 149.195312 204.09375 147.390625 C 204.34375 145.585938 204.46875 143.910156 204.46875 142.304688 C 204.46875 140.703125 204.410156 139.097656 204.289062 137.519531 L 202.539062 112.96875 L 194.191406 112.96875 L 192.339844 137.519531 C 192.21875 139.25 192.160156 140.878906 192.160156 142.40625 C 192.160156 143.933594 192.289062 145.613281 192.554688 147.390625 C 192.8125 149.195312 193.207031 150.097656 193.730469 150.097656 L 194.019531 150.097656 L 194.019531 152.101562 L 186.386719 152.101562 L 186.386719 150.097656 L 186.710938 150.097656 C 187.253906 150.097656 187.800781 149.171875 188.351562 147.292969 C 188.898438 145.4375 189.351562 142.632812 189.707031 138.898438 L 197.945312 34.472656 C 199.066406 21.296875 199.660156 12.578125 199.734375 8.316406 L 200.054688 8.316406 L 210.648438 138.496094 C 211.007812 142.355469 211.457031 145.261719 212.003906 147.191406 C 212.550781 149.121094 213.109375 150.097656 213.683594 150.097656 Z M 194.796875 104.574219 L 201.929688 104.574219 L 198.46875 55.46875 Z M 194.796875 104.574219 "/>
<path style=" stroke:none;fill-rule:nonzero;fill:rgb(50.980392%,54.117647%,53.72549%);fill-opacity:1;" d="M 216.480469 150.097656 C 217.097656 150.097656 217.625 148.871094 218.070312 146.414062 C 218.507812 143.960938 218.738281 140.976562 218.761719 137.519531 L 218.761719 26.707031 C 218.738281 23.25 218.507812 20.320312 218.070312 17.914062 C 217.628906 15.507812 217.097656 14.332031 216.480469 14.332031 L 216.015625 14.332031 L 216.015625 12.328125 L 226.859375 12.328125 L 226.824219 14.332031 L 226.394531 14.332031 C 225.777344 14.332031 225.238281 15.535156 224.785156 17.914062 C 224.335938 20.320312 224.109375 23.25 224.109375 26.707031 L 224.109375 137.519531 C 224.109375 140.976562 224.335938 143.933594 224.785156 146.414062 C 225.238281 148.871094 225.769531 150.097656 226.394531 150.097656 L 226.824219 150.097656 L 226.859375 152.101562 L 216.015625 152.101562 L 216.015625 150.097656 Z M 216.480469 150.097656 "/>
<path style=" stroke:none;fill-rule:nonzero;fill:rgb(50.980392%,54.117647%,53.72549%);fill-opacity:1;" d="M 231.890625 150.097656 C 232.507812 150.097656 233.035156 148.871094 233.476562 146.414062 C 233.917969 143.960938 234.148438 140.976562 234.171875 137.519531 L 234.171875 26.90625 C 234.148438 23.449219 233.917969 20.492188 233.476562 18.015625 C 233.039062 15.558594 232.507812 14.332031 231.890625 14.332031 L 231.421875 14.332031 L 231.421875 12.328125 L 242.265625 12.328125 L 242.230469 14.332031 L 241.800781 14.332031 C 241.183594 14.332031 240.648438 15.558594 240.195312 18.015625 C 239.742188 20.46875 239.519531 23.449219 239.519531 26.90625 L 239.519531 143.507812 L 244.191406 143.507812 C 245.929688 143.507812 247.382812 140.703125 248.558594 135.117188 C 249.738281 129.527344 250.609375 121.609375 251.183594 111.363281 L 251.539062 111.363281 L 249.898438 152.101562 L 231.421875 152.101562 L 231.421875 150.097656 Z M 231.890625 150.097656 "/>
<path style=" stroke:none;fill-rule:nonzero;fill:rgb(100%,100%,100%);fill-opacity:1;" d="M 62.488281 221.75 C 62.910156 223.730469 63.105469 227.011719 63.109375 229.992188 C 63.121094 236.859375 62.035156 242.371094 60.679688 242.371094 C 59.867188 242.371094 58.8125 241.269531 58.3125 238.761719 C 58.226562 236.707031 58.261719 232.199219 58.453125 229.21875 L 58.609375 229.21875 C 58.488281 236.132812 59.320312 240.265625 60.527344 240.066406 C 61.660156 239.890625 62.355469 236.582031 62.355469 231.597656 C 62.355469 229.21875 62.207031 227.261719 61.851562 225.535156 L 59.109375 213.683594 C 58.597656 211.230469 58.460938 208.046875 58.457031 205.390625 C 58.4375 199.152344 59.453125 194.167969 60.726562 194.167969 C 61.351562 194.167969 61.777344 194.492188 62.082031 194.894531 L 62.542969 194.894531 L 62.5625 203.238281 L 62.40625 203.238281 C 62.40625 198.976562 61.898438 196.445312 60.824219 196.445312 C 59.90625 196.445312 59.167969 199.703125 59.175781 203.761719 C 59.175781 205.742188 59.285156 207.871094 59.71875 209.800781 L 62.492188 221.777344 Z M 62.488281 221.75 "/>
<path style=" stroke:none;fill-rule:nonzero;fill:rgb(100%,100%,100%);fill-opacity:1;" d="M 65.242188 241.292969 L 65.242188 240.515625 L 65.425781 240.515625 C 65.933594 240.515625 66.347656 238.664062 66.355469 236.359375 L 66.355469 200.128906 C 66.347656 197.824219 65.933594 195.972656 65.425781 195.972656 L 65.242188 195.972656 L 65.242188 195.195312 C 65.242188 195.195312 68.347656 195.195312 68.347656 195.195312 L 68.347656 195.972656 L 68.164062 195.972656 C 67.667969 195.972656 67.257812 197.75 67.230469 200.003906 L 67.230469 236.433594 C 67.25 238.710938 67.65625 240.515625 68.164062 240.515625 L 68.347656 240.515625 L 68.347656 241.292969 C 68.347656 241.292969 65.242188 241.292969 65.242188 241.292969 Z M 65.242188 241.292969 "/>
<path style=" stroke:none;fill-rule:nonzero;fill:rgb(100%,100%,100%);fill-opacity:1;" d="M 80.527344 236.308594 C 80.605469 238.964844 81.011719 240.515625 81.464844 240.515625 L 81.671875 240.515625 L 81.671875 241.292969 L 78.820312 241.292969 L 78.820312 240.566406 L 79.019531 240.566406 C 79.296875 240.566406 79.5625 239.265625 79.523438 237.585938 L 78.800781 205.992188 L 76.21875 234.527344 C 76.21875 234.527344 75.824219 239.1875 75.730469 242.371094 L 75.597656 242.371094 L 72.292969 206.695312 L 71.675781 237.609375 C 71.644531 239.214844 71.898438 240.59375 72.175781 240.59375 L 72.378906 240.59375 L 72.378906 241.320312 L 69.832031 241.320312 L 69.832031 240.542969 L 70.039062 240.542969 C 70.5 240.542969 70.910156 238.9375 70.976562 236.183594 L 72.039062 194.167969 L 72.171875 194.167969 L 75.792969 233.175781 L 79.292969 194.191406 L 79.421875 194.191406 L 80.523438 236.332031 Z M 80.527344 236.308594 "/>
<path style=" stroke:none;fill-rule:nonzero;fill:rgb(100%,100%,100%);fill-opacity:1;" d="M 86.359375 195.21875 C 88.269531 195.21875 89.496094 200.207031 89.492188 208.347656 C 89.488281 220.046875 87.40625 225.285156 85.546875 220.222656 L 85.546875 219.496094 C 85.546875 219.496094 87.726562 222.730469 88.414062 211.730469 C 88.480469 210.652344 88.507812 208.898438 88.511719 207.570312 C 88.511719 201.332031 87.695312 197.5 86.347656 197.5 L 85.019531 197.5 L 85.019531 236.382812 C 85.03125 238.664062 85.363281 240.492188 85.8125 240.492188 L 86.003906 240.492188 L 86.003906 241.269531 C 86.003906 241.269531 83.15625 241.269531 83.15625 241.269531 L 83.15625 240.492188 L 83.347656 240.492188 C 83.796875 240.492188 84.128906 238.664062 84.144531 236.40625 L 84.144531 200.003906 C 84.136719 197.699219 83.800781 195.945312 83.347656 195.945312 L 83.160156 195.945312 L 83.160156 195.167969 C 83.160156 195.167969 86.363281 195.167969 86.363281 195.167969 Z M 86.359375 195.21875 "/>
<path style=" stroke:none;fill-rule:nonzero;fill:rgb(100%,100%,100%);fill-opacity:1;" d="M 97.699219 230.269531 L 96.945312 241.292969 L 91.371094 241.292969 L 91.371094 240.515625 L 91.566406 240.515625 C 92.007812 240.515625 92.339844 238.710938 92.355469 236.433594 L 92.355469 200.128906 C 92.347656 197.824219 91.984375 195.972656 91.539062 195.972656 L 91.378906 195.972656 L 91.378906 195.195312 C 91.378906 195.195312 94.21875 195.195312 94.21875 195.195312 L 94.21875 195.972656 L 94.054688 195.972656 C 93.605469 195.972656 93.242188 197.824219 93.234375 200.128906 L 93.234375 238.9375 L 95.382812 238.9375 C 96.699219 238.839844 97.167969 235.230469 97.558594 230.269531 L 97.707031 230.269531 Z M 97.699219 230.269531 "/>
<path style=" stroke:none;fill-rule:nonzero;fill:rgb(100%,100%,100%);fill-opacity:1;" d="M 106.082031 195.195312 L 106.082031 195.972656 L 105.910156 195.972656 C 105.386719 195.972656 104.921875 197.824219 104.652344 199.878906 L 102.019531 222.226562 L 102.019531 236.332031 C 102.027344 238.636719 102.382812 240.492188 102.816406 240.492188 L 102.972656 240.492188 L 102.972656 241.269531 C 102.972656 241.269531 100.167969 241.269531 100.167969 241.269531 L 100.167969 240.492188 L 100.328125 240.492188 C 100.761719 240.492188 101.117188 238.636719 101.125 236.332031 L 101.125 222.101562 L 98.582031 199.804688 C 98.300781 197.449219 97.847656 195.945312 97.324219 195.945312 L 97.15625 195.945312 L 97.15625 195.167969 L 100.335938 195.167969 L 100.335938 195.945312 L 100.179688 195.945312 C 99.8125 195.945312 99.597656 197.824219 99.710938 199.605469 L 101.703125 219.496094 L 103.832031 199.679688 C 103.976562 197.773438 103.738281 195.945312 103.363281 195.945312 L 103.207031 195.945312 L 103.207031 195.167969 L 106.074219 195.167969 Z M 106.082031 195.195312 "/>
<path style=" stroke:none;fill-rule:nonzero;fill:rgb(100%,100%,100%);fill-opacity:1;" d="M 117.03125 241.292969 L 111.457031 241.292969 L 111.457031 240.515625 L 111.652344 240.515625 C 112.09375 240.515625 112.425781 238.710938 112.441406 236.433594 L 112.441406 199.980469 C 112.441406 197.699219 112.097656 195.945312 111.652344 195.945312 L 111.464844 195.945312 L 111.464844 195.167969 C 111.464844 195.167969 115.46875 195.167969 115.46875 195.167969 C 116.019531 195.167969 116.761719 194.492188 117 193.964844 L 117 202.660156 L 116.851562 202.660156 L 116.851562 201.484375 C 116.851562 199.328125 116.582031 197.574219 116.164062 197.523438 L 113.316406 197.523438 L 113.316406 217.066406 L 115.660156 217.066406 C 116.042969 217.015625 116.214844 215.589844 116.214844 213.808594 L 116.214844 212.832031 L 116.367188 212.832031 C 116.367188 212.832031 116.367188 223.605469 116.367188 223.605469 L 116.214844 223.605469 L 116.214844 222.628906 C 116.214844 220.898438 116.050781 219.496094 115.691406 219.371094 L 113.316406 219.371094 L 113.316406 238.914062 L 115.460938 238.914062 C 116.777344 238.8125 117.246094 235.230469 117.636719 230.246094 L 117.78125 230.246094 L 117.027344 241.269531 Z M 117.03125 241.292969 "/>
<path style=" stroke:none;fill-rule:nonzero;fill:rgb(100%,100%,100%);fill-opacity:1;" d="M 125.765625 230.269531 L 125.011719 241.292969 L 119.4375 241.292969 L 119.4375 240.515625 L 119.632812 240.515625 C 120.074219 240.515625 120.40625 238.710938 120.421875 236.433594 L 120.421875 200.128906 C 120.414062 197.824219 120.050781 195.972656 119.605469 195.972656 L 119.441406 195.972656 L 119.441406 195.195312 C 119.441406 195.195312 122.285156 195.195312 122.285156 195.195312 L 122.285156 195.972656 L 122.121094 195.972656 C 121.671875 195.972656 121.308594 197.824219 121.300781 200.128906 L 121.300781 238.9375 L 123.449219 238.9375 C 124.765625 238.839844 125.234375 235.230469 125.625 230.269531 L 125.769531 230.269531 Z M 125.765625 230.269531 "/>
<path style=" stroke:none;fill-rule:nonzero;fill:rgb(100%,100%,100%);fill-opacity:1;" d="M 132.667969 241.292969 L 127.097656 241.292969 L 127.097656 240.515625 L 127.289062 240.515625 C 127.730469 240.515625 128.0625 238.710938 128.082031 236.433594 L 128.082031 199.980469 C 128.082031 197.699219 127.734375 195.945312 127.289062 195.945312 L 127.101562 195.945312 L 127.101562 195.167969 C 127.101562 195.167969 131.105469 195.167969 131.105469 195.167969 C 131.65625 195.167969 132.398438 194.492188 132.636719 193.964844 L 132.636719 202.660156 L 132.488281 202.660156 L 132.488281 201.484375 C 132.488281 199.328125 132.21875 197.574219 131.800781 197.523438 L 128.953125 197.523438 L 128.953125 217.066406 L 131.296875 217.066406 C 131.679688 217.015625 131.851562 215.589844 131.851562 213.808594 L 131.851562 212.832031 L 132.003906 212.832031 C 132.003906 212.832031 132.003906 223.605469 132.003906 223.605469 L 131.851562 223.605469 L 131.851562 222.628906 C 131.851562 220.898438 131.6875 219.496094 131.328125 219.371094 L 128.953125 219.371094 L 128.953125 238.914062 L 131.097656 238.914062 C 132.414062 238.8125 132.882812 235.230469 133.273438 230.246094 L 133.417969 230.246094 L 132.664062 241.269531 Z M 132.667969 241.292969 "/>
<path style=" stroke:none;fill-rule:nonzero;fill:rgb(100%,100%,100%);fill-opacity:1;" d="M 143.550781 232.472656 C 142.914062 236.984375 141.578125 242.371094 139.644531 242.371094 C 136.933594 242.296875 135.148438 233.152344 135.148438 218.269531 C 135.148438 203.386719 136.941406 194.167969 139.644531 194.167969 C 140.90625 194.167969 141.921875 195.644531 142.84375 198.800781 L 143.144531 209.652344 L 143.023438 209.652344 C 142.625 200.679688 141.546875 196.445312 139.628906 196.445312 C 137.53125 196.445312 136.136719 204.738281 136.136719 218.269531 C 136.136719 231.796875 137.542969 240.066406 139.644531 240.066406 C 140.785156 240.066406 141.800781 238.085938 142.660156 233.402344 L 142.683594 223.203125 C 142.683594 221.277344 142.445312 220.171875 142.042969 220.199219 L 141.847656 220.199219 L 141.847656 219.421875 L 144.363281 219.421875 L 144.363281 220.199219 L 144.175781 220.199219 C 143.773438 220.199219 143.546875 221.277344 143.546875 223.253906 L 143.546875 232.5 Z M 143.550781 232.472656 "/>
<path style=" stroke:none;fill-rule:nonzero;fill:rgb(100%,100%,100%);fill-opacity:1;" d="M 153.273438 236.03125 C 153.550781 239.1875 153.964844 240.515625 154.328125 240.515625 L 154.433594 240.515625 L 154.433594 241.292969 L 151.613281 241.292969 L 151.613281 240.542969 L 151.71875 240.542969 C 152.035156 240.542969 152.382812 238.863281 152.203125 235.933594 L 151.457031 225.710938 L 147.988281 225.710938 L 147.230469 235.730469 C 147.019531 238.8125 147.382812 240.542969 147.699219 240.542969 L 147.808594 240.542969 L 147.808594 241.292969 L 145.195312 241.292969 L 145.195312 240.515625 L 145.300781 240.515625 C 145.667969 240.515625 146.09375 239.214844 146.375 236.082031 L 149.21875 202.035156 C 149.21875 202.035156 149.71875 196.144531 149.746094 194.117188 L 149.875 194.117188 L 153.265625 236.03125 Z M 151.292969 223.378906 L 149.753906 202.359375 L 148.171875 223.378906 L 151.300781 223.378906 Z M 151.292969 223.378906 "/>
<path style=" stroke:none;fill-rule:nonzero;fill:rgb(100%,100%,100%);fill-opacity:1;" d="M 165.203125 195.195312 L 165.203125 195.972656 L 164.976562 195.972656 C 164.570312 195.972656 164.238281 197.675781 164.214844 199.804688 L 164.214844 232.550781 C 164.214844 237.511719 164.34375 242.34375 164.34375 242.34375 L 164.214844 242.34375 L 157.082031 204.464844 L 157.082031 236.507812 C 157.089844 238.738281 157.425781 240.515625 157.847656 240.515625 L 158.074219 240.515625 L 158.074219 241.292969 C 158.074219 241.292969 155.484375 241.292969 155.484375 241.292969 L 155.484375 240.515625 L 155.710938 240.515625 C 156.128906 240.515625 156.46875 238.738281 156.476562 236.507812 L 156.476562 203.664062 C 156.476562 198.425781 156.347656 194.066406 156.347656 194.066406 L 156.496094 194.117188 L 163.609375 231.671875 L 163.609375 199.828125 C 163.585938 197.699219 163.253906 195.996094 162.851562 195.996094 L 162.621094 195.996094 L 162.621094 195.21875 C 162.621094 195.21875 165.210938 195.21875 165.210938 195.21875 Z M 165.203125 195.195312 "/>
<path style=" stroke:none;fill-rule:nonzero;fill:rgb(100%,100%,100%);fill-opacity:1;" d="M 172.511719 195.121094 C 173.058594 195.121094 173.804688 194.441406 174.042969 193.917969 L 174.042969 202.558594 L 173.894531 202.558594 L 173.894531 201.382812 C 173.894531 199.226562 173.628906 197.472656 173.210938 197.425781 L 170.726562 197.425781 L 170.726562 236.433594 C 170.746094 238.6875 171.097656 240.492188 171.53125 240.492188 L 171.695312 240.492188 L 171.695312 241.269531 C 171.695312 241.269531 168.871094 241.269531 168.871094 241.269531 L 168.871094 240.492188 L 169.03125 240.492188 C 169.46875 240.492188 169.828125 238.636719 169.835938 236.332031 L 169.835938 197.425781 L 167.351562 197.425781 C 166.9375 197.472656 166.667969 199.203125 166.667969 201.359375 L 166.667969 202.535156 L 166.519531 202.535156 C 166.519531 202.535156 166.519531 193.890625 166.519531 193.890625 C 166.757812 194.417969 167.507812 195.09375 168.046875 195.09375 L 172.511719 195.09375 Z M 172.511719 195.121094 "/>
<path style=" stroke:none;fill-rule:nonzero;fill:rgb(100%,100%,100%);fill-opacity:1;" d="M 179.6875 241.292969 L 179.6875 240.515625 L 179.871094 240.515625 C 180.378906 240.515625 180.792969 238.664062 180.800781 236.359375 L 180.800781 200.128906 C 180.792969 197.824219 180.378906 195.972656 179.871094 195.972656 L 179.6875 195.972656 L 179.6875 195.195312 C 179.6875 195.195312 182.792969 195.195312 182.792969 195.195312 L 182.792969 195.972656 L 182.609375 195.972656 C 182.113281 195.972656 181.707031 197.75 181.679688 200.003906 L 181.679688 236.433594 C 181.695312 238.710938 182.105469 240.515625 182.609375 240.515625 L 182.792969 240.515625 L 182.792969 241.292969 C 182.792969 241.292969 179.6875 241.292969 179.6875 241.292969 Z M 179.6875 241.292969 "/>
<path style=" stroke:none;fill-rule:nonzero;fill:rgb(100%,100%,100%);fill-opacity:1;" d="M 194.378906 195.195312 L 194.378906 195.972656 L 194.152344 195.972656 C 193.746094 195.972656 193.414062 197.675781 193.390625 199.804688 L 193.390625 232.550781 C 193.390625 237.511719 193.519531 242.34375 193.519531 242.34375 L 193.390625 242.34375 L 186.257812 204.464844 L 186.257812 236.507812 C 186.265625 238.738281 186.601562 240.515625 187.023438 240.515625 L 187.25 240.515625 L 187.25 241.292969 C 187.25 241.292969 184.660156 241.292969 184.660156 241.292969 L 184.660156 240.515625 L 184.886719 240.515625 C 185.304688 240.515625 185.644531 238.738281 185.652344 236.507812 L 185.652344 203.664062 C 185.652344 198.425781 185.523438 194.066406 185.523438 194.066406 L 185.671875 194.117188 L 192.785156 231.671875 L 192.785156 199.828125 C 192.761719 197.699219 192.429688 195.996094 192.027344 195.996094 L 191.796875 195.996094 L 191.796875 195.21875 C 191.796875 195.21875 194.382812 195.21875 194.382812 195.21875 Z M 194.378906 195.195312 "/>
<path style=" stroke:none;fill-rule:nonzero;fill:rgb(100%,100%,100%);fill-opacity:1;" d="M 201.691406 195.121094 C 202.238281 195.121094 202.988281 194.441406 203.222656 193.917969 L 203.222656 202.558594 L 203.074219 202.558594 L 203.074219 201.382812 C 203.074219 199.226562 202.808594 197.472656 202.390625 197.425781 L 199.90625 197.425781 L 199.90625 236.433594 C 199.925781 238.6875 200.277344 240.492188 200.710938 240.492188 L 200.875 240.492188 L 200.875 241.269531 C 200.875 241.269531 198.050781 241.269531 198.050781 241.269531 L 198.050781 240.492188 L 198.210938 240.492188 C 198.648438 240.492188 199.007812 238.636719 199.015625 236.332031 L 199.015625 197.425781 L 196.53125 197.425781 C 196.117188 197.472656 195.847656 199.203125 195.847656 201.359375 L 195.847656 202.535156 L 195.699219 202.535156 C 195.699219 202.535156 195.699219 193.890625 195.699219 193.890625 C 195.9375 194.417969 196.6875 195.09375 197.226562 195.09375 L 201.691406 195.09375 Z M 201.691406 195.121094 "/>
<path style=" stroke:none;fill-rule:nonzero;fill:rgb(100%,100%,100%);fill-opacity:1;" d="M 210.378906 241.292969 L 204.808594 241.292969 L 204.808594 240.515625 L 205 240.515625 C 205.445312 240.515625 205.773438 238.710938 205.792969 236.433594 L 205.792969 199.980469 C 205.792969 197.699219 205.449219 195.945312 205 195.945312 L 204.8125 195.945312 L 204.8125 195.167969 C 204.8125 195.167969 208.816406 195.167969 208.816406 195.167969 C 209.367188 195.167969 210.113281 194.492188 210.347656 193.964844 L 210.347656 202.660156 L 210.199219 202.660156 L 210.199219 201.484375 C 210.199219 199.328125 209.933594 197.574219 209.511719 197.523438 L 206.664062 197.523438 L 206.664062 217.066406 L 209.011719 217.066406 C 209.390625 217.015625 209.566406 215.589844 209.566406 213.808594 L 209.566406 212.832031 L 209.71875 212.832031 C 209.71875 212.832031 209.71875 223.605469 209.71875 223.605469 L 209.566406 223.605469 L 209.566406 222.628906 C 209.566406 220.898438 209.398438 219.496094 209.042969 219.371094 L 206.664062 219.371094 L 206.664062 238.914062 L 208.808594 238.914062 C 210.125 238.8125 210.59375 235.230469 210.984375 230.246094 L 211.132812 230.246094 L 210.375 241.269531 Z M 210.378906 241.292969 "/>
<path style=" stroke:none;fill-rule:nonzero;fill:rgb(100%,100%,100%);fill-opacity:1;" d="M 216.230469 195.21875 C 217.957031 195.21875 219.015625 199.90625 219.015625 207.644531 C 219.015625 214.160156 218.113281 219.597656 216.882812 220.296875 C 217.183594 221.050781 217.644531 223.980469 217.9375 226.3125 C 217.9375 226.3125 218.570312 231.121094 219.136719 234.679688 C 219.699219 238.1875 220.082031 240.464844 220.84375 240.515625 L 220.84375 241.292969 L 220.410156 241.292969 C 218.890625 241.292969 218.292969 237.433594 217.863281 234.527344 C 217.707031 233.476562 216.628906 224.757812 216.519531 224.007812 C 216.148438 221.402344 215.675781 218.820312 215.128906 218.820312 L 215.128906 218.117188 C 215.128906 218.117188 215.464844 218.144531 215.917969 218.09375 C 216.671875 217.992188 217.539062 217.941406 217.933594 211.480469 C 218 210.402344 218.039062 208.773438 218.027344 207.09375 C 217.996094 201.359375 217.308594 197.976562 216.203125 197.648438 C 215.433594 197.425781 214.757812 197.648438 214.628906 197.574219 L 214.628906 236.332031 C 214.636719 238.636719 214.960938 240.492188 215.40625 240.492188 L 215.59375 240.492188 L 215.59375 241.269531 C 215.59375 241.269531 212.792969 241.269531 212.792969 241.269531 L 212.792969 240.492188 L 212.980469 240.492188 C 213.414062 240.492188 213.742188 238.6875 213.757812 236.433594 L 213.757812 199.953125 C 213.746094 197.675781 213.414062 195.972656 212.980469 195.972656 L 212.796875 195.972656 L 212.796875 195.195312 C 212.796875 195.195312 216.230469 195.195312 216.230469 195.195312 Z M 216.230469 195.21875 "/>
<path style=" stroke:none;fill-rule:nonzero;fill:rgb(100%,100%,100%);fill-opacity:1;" d="M 222.019531 241.292969 L 222.019531 240.515625 L 222.203125 240.515625 C 222.714844 240.515625 223.125 238.664062 223.136719 236.359375 L 223.136719 200.128906 C 223.125 197.824219 222.714844 195.972656 222.203125 195.972656 L 222.019531 195.972656 L 222.019531 195.195312 C 222.019531 195.195312 225.125 195.195312 225.125 195.195312 L 225.125 195.972656 L 224.941406 195.972656 C 224.445312 195.972656 224.039062 197.75 224.011719 200.003906 L 224.011719 236.433594 C 224.03125 238.710938 224.4375 240.515625 224.941406 240.515625 L 225.125 240.515625 L 225.125 241.292969 C 225.125 241.292969 222.019531 241.292969 222.019531 241.292969 Z M 222.019531 241.292969 "/>
<path style=" stroke:none;fill-rule:nonzero;fill:rgb(100%,100%,100%);fill-opacity:1;" d="M 236.25 218.242188 C 236.25 232.523438 234.175781 242.34375 231.621094 242.34375 C 229.066406 242.34375 226.992188 232.5 226.992188 218.242188 C 226.992188 203.988281 229.058594 194.140625 231.621094 194.140625 C 234.179688 194.140625 236.25 203.988281 236.25 218.242188 Z M 235.230469 218.242188 C 235.230469 205.265625 233.640625 196.421875 231.621094 196.421875 C 229.601562 196.421875 228.007812 205.242188 228.007812 218.242188 C 228.007812 231.246094 229.601562 240.066406 231.621094 240.066406 C 233.640625 240.066406 235.230469 231.246094 235.230469 218.242188 Z M 235.230469 218.242188 "/>
<path style=" stroke:none;fill-rule:nonzero;fill:rgb(100%,100%,100%);fill-opacity:1;" d="M 241.539062 195.21875 C 243.265625 195.21875 244.328125 199.90625 244.328125 207.644531 C 244.328125 214.160156 243.421875 219.597656 242.191406 220.296875 C 242.492188 221.050781 242.953125 223.980469 243.246094 226.3125 C 243.246094 226.3125 243.878906 231.121094 244.445312 234.679688 C 245.007812 238.1875 245.390625 240.464844 246.152344 240.515625 L 246.152344 241.292969 L 245.71875 241.292969 C 244.199219 241.292969 243.601562 237.433594 243.171875 234.527344 C 243.015625 233.476562 241.9375 224.757812 241.828125 224.007812 C 241.457031 221.402344 240.984375 218.820312 240.4375 218.820312 L 240.4375 218.117188 C 240.4375 218.117188 240.773438 218.144531 241.226562 218.09375 C 241.980469 217.992188 242.847656 217.941406 243.242188 211.480469 C 243.308594 210.402344 243.347656 208.773438 243.335938 207.09375 C 243.304688 201.359375 242.617188 197.976562 241.511719 197.648438 C 240.742188 197.425781 240.066406 197.648438 239.9375 197.574219 L 239.9375 236.332031 C 239.945312 238.636719 240.273438 240.492188 240.714844 240.492188 L 240.902344 240.492188 L 240.902344 241.269531 C 240.902344 241.269531 238.101562 241.269531 238.101562 241.269531 L 238.101562 240.492188 L 238.289062 240.492188 C 238.722656 240.492188 239.050781 238.6875 239.066406 236.433594 L 239.066406 199.953125 C 239.054688 197.675781 238.722656 195.972656 238.289062 195.972656 L 238.105469 195.972656 L 238.105469 195.195312 C 238.105469 195.195312 241.539062 195.195312 241.539062 195.195312 Z M 241.539062 195.21875 "/>
<path style=" stroke:none;fill-rule:nonzero;fill:rgb(100%,100%,100%);fill-opacity:1;" d="M 251.550781 221.75 C 251.96875 223.730469 252.167969 227.011719 252.171875 229.992188 C 252.179688 236.859375 251.097656 242.371094 249.742188 242.371094 C 248.925781 242.371094 247.875 241.269531 247.375 238.761719 C 247.289062 236.707031 247.324219 232.199219 247.511719 229.21875 L 247.667969 229.21875 C 247.546875 236.132812 248.382812 240.265625 249.589844 240.066406 C 250.722656 239.890625 251.414062 236.582031 251.414062 231.597656 C 251.414062 229.21875 251.269531 227.261719 250.914062 225.535156 L 248.171875 213.683594 C 247.660156 211.230469 247.523438 208.046875 247.515625 205.390625 C 247.5 199.152344 248.515625 194.167969 249.785156 194.167969 C 250.414062 194.167969 250.839844 194.492188 251.140625 194.894531 L 251.601562 194.894531 L 251.625 203.238281 L 251.46875 203.238281 C 251.46875 198.976562 250.957031 196.445312 249.886719 196.445312 C 248.96875 196.445312 248.230469 199.703125 248.238281 203.761719 C 248.238281 205.742188 248.34375 207.871094 248.78125 209.800781 L 251.554688 221.777344 Z M 251.550781 221.75 "/>
</g>
</svg>
